<?xml version="1.0" encoding="utf-8"?>
<!-- Generator: Adobe Illustrator 23.0.4, SVG Export Plug-In . SVG Version: 6.00 Build 0)  -->
<svg version="1.1" id="圖層_1" xmlns="http://www.w3.org/2000/svg" xmlns:xlink="http://www.w3.org/1999/xlink" x="0px" y="0px"
	 viewBox="0 0 72 26" style="enable-background:new 0 0 72 26;" xml:space="preserve">
<style type="text/css">
	.st0{fill:#E28413;}
	.st1{fill:#00913A;}
</style>
<g>
	<g>
		<rect x="11.1" y="2.9" class="st0" width="11.6" height="1.2"/>
		<path class="st0" d="M71.2,19.9H69l0.1-6.5h-4L62.4,12l0,1.4h-3.9l-0.1,6.5h-1.6l0,1.2h1.6l0,5H61l0-5h5.2l0,1.1
			c0,0.9-0.3,1.4-0.8,1.6c-0.9,0.4-2.2-0.4-2.2-0.4l-0.1-0.1l-0.8,1.3l0.1,0.1c0,0,0.9,0.7,2.9,1.2c0.3,0.1,0.6,0.1,0.9,0.1
			c0.5,0,1-0.1,1.4-0.4c0.9-0.6,1.3-1.7,1.4-3.2h0l0-1.3h3L71.2,19.9z M62.3,19.9h-1.2l0-2.3h1.2L62.3,19.9z M62.3,16.5h-1.2l0-1.9
			h1.2L62.3,16.5z M65.1,14.5h1.2l0,1.9h-1.2L65.1,14.5z M65.1,19.9l0-2.3h1.2l0,1.6l0,0.6H65.1z"/>
		<polygon class="st0" points="26.1,8.8 26.1,9.9 35.3,9.9 35.3,8.8 32.1,8.8 32.1,5.7 35,5.7 35,4.6 32.1,4.6 32.1,2.4 29.4,2.4 
			29.4,4.6 26.4,4.6 26.4,5.7 29.4,5.7 29.4,8.8 		"/>
		<path class="st0" d="M21.7,13.5l0-7.3h-9.6l0,7.3H21.7z M15,7.4h4l0,4.9h-4L15,7.4z"/>
		<path class="st0" d="M10.7,17c-1.5-1.2-2.3-2.3-2.7-2.9c2.5-3.7,2.7-7.4,2.7-7.7l0-0.2L2.7,8v1.2L8.3,8c-0.1,1.4-0.8,3.1-2.4,5.2
			c-1.5,2-5.8,6-5.8,6L0,19.3L2.4,22l0.1-0.2c0,0,0.7-1.6,2.7-4.2L5.2,26H8L8,17c0.5,0.9,1.1,2.1,1.1,2.1l1.7-2L10.7,17z"/>
		<path class="st1" d="M30.5,14.5l-0.1,0.2l1.3,0.4c1.8-1.3,3.1-4,3.1-4l-2.6-0.6l0,0.2C31.8,13,30.6,14.5,30.5,14.5z"/>
		<path class="st1" d="M3.5,4.4C4.2,6,5.3,7,6.4,7.5C7.7,8.2,9.3,8.1,10,8c0.6-0.1,0.6-0.5,0.6-0.9c0-2.4-0.7-4.4-2.1-5.6
			c-0.8-0.6-1.8-1-2.7-1.2C3.2-0.2,0.5,0.6,0.5,0.6S2.2,1.4,3.5,4.4z"/>
		<path class="st0" d="M21.1,14.8H10.8l-0.1,10.7h12.4l0.1-8.7C23.2,15.7,22.2,14.8,21.1,14.8z M15.6,16l0,3.1h-2.1l0-3.1H15.6z
			 M13.5,20.2h2.1l0,4.1h-2.1L13.5,20.2z M20.4,24.3h-2.1l0-4.1h2.1L20.4,24.3z M20.4,19.1h-2.1l0-3.1h1.4c0.4,0,0.7,0.3,0.7,0.7
			L20.4,19.1z"/>
		<path class="st1" d="M28.3,11.2c-0.7,0-1.1,0.5-1.1,1.1c0.1,0.6,0.6,1.1,1.3,1.1c0.7,0,1.1-0.5,1.1-1.1
			C29.5,11.7,29,11.2,28.3,11.2z"/>
		<path class="st1" d="M60.7,10.5c-0.7,0-1.1,0.5-1.1,1.1c0.1,0.6,0.6,1.1,1.3,1.1c0.7,0,1.1-0.5,1.1-1.1
			C61.9,11,61.4,10.5,60.7,10.5z"/>
		<path class="st1" d="M66.2,10.5c-0.7,0-1.1,0.5-1.1,1.1c0.1,0.6,0.6,1.1,1.3,1.1s1.1-0.5,1.1-1.1C67.4,11,66.8,10.5,66.2,10.5z"/>
		<path class="st0" d="M54.4,19.4h1.8h0.5l0.1-14.6c0-1.1-1-2-2.1-2h-0.6l0,0h-1.6l0,0h-2.7l-0.1,16.5h0.9h1.9h0.5
			c0.2,1.4,0.8,4.8,2.1,6.6l2.2-1.3C57.2,24.7,54.9,22,54.4,19.4z M54,18.3h-1.6l0-3.6H54L54,18.3z M54,13.5h-1.6l0-3.1h1.6L54,13.5
			z M54.1,9.3h-1.6l0-5.3h0.8c0.4,0,0.7,0.3,0.7,0.7L54.1,9.3z"/>
		<path class="st0" d="M48,23.8c-2.5,0.8-4.1-0.4-5-1.8c2.8-3.9,2.8-9,2.8-9h-7.5c0.1-3.1,0.2-7.1,0.2-8.9h4.2
			c0,2.1,0.2,4.7-0.5,5.2c-0.2,0.2-0.5,0.2-0.7,0.2C40.7,9.4,40,8.6,40,8.6l-0.1-0.2l-0.8,0.8l0.1,0.1c0.1,0.1,1.9,2.2,3.5,2.2
			c0,0,0.1,0,0.1,0c0.5,0,1-0.2,1.3-0.6c1.6-1.9,1.5-7.7,1.5-7.9l0-0.2l-9.4,0l0,0.1c0,0-0.1,6.4-0.2,10.5c0,0.5-0.1,1.1-0.1,1.7
			h-9.7v1h3.2l0,2.7H27v1.2h2.3l0,2.6h0l0,3.1H32l0-5.8h2.8c-0.7,2.7-1.4,4.9-1.4,4.9l-0.1,0.4h3l0-0.3c0-0.1,0.8-3.5,1.3-7l0.3-2.7
			c0.4,1,0.9,2.4,1.6,4c0.4,0.9,0.6,1.5,1.2,2.3c-1.5,2.2-3.1,3.1-3.1,3.1l0.4,0.6c1.5-0.5,2.7-1.4,3.6-2.3c1.3,1.6,3,2.5,4.8,2.5
			c5.1,0,5.9-4.1,5.9-4.1l-2.3-1C50.2,20.6,49.8,23.1,48,23.8z M32,19.1l0-0.4h0l0-2.3h3.6c-0.1,0.9-0.3,1.8-0.5,2.7H32z M40.1,14
			h3.2c-0.1,2.6-0.8,4.4-1.4,6C41,18.3,40.4,16.2,40.1,14z"/>
	</g>
	<path class="st1" d="M69.9,10.1l-0.7-1l0.6-6.9h2L71.7,1h-4.6L67,2.9h-1.9l0-1.9H63l0,1.9h-1.8l0-1.9H59l0,1.9h-1.2v1.2H59l0,1.8
		h-1.1V7h0.8l0,1.9h-0.7v1.2H69.9z M62.9,8.9h-1.8l0-1.9h1.8L62.9,8.9z M62.9,5.9h-1.8l0-1.8h1.8L62.9,5.9z M66.5,8.9H65L65,7h1.6
		L66.5,8.9z M66.7,5.9H65l0-1.8h1.8L66.7,5.9z"/>
</g>
</svg>
