<svg xmlns="http://www.w3.org/2000/svg" width="25" height="14">
    <path fill="#E50011" fill-rule="evenodd" d="M23.707 8.312H1.293A1.302 1.302 0 0 1 0 7c0-.724.579-1.312 1.293-1.312h22.414C24.421 5.688 25 6.276 25 7c0 .725-.579 1.312-1.293 1.312zm0-5.687H1.293A1.303 1.303 0 0 1 0 1.312C0 .588.579 0 1.293 0h22.414C24.421 0 25 .588 25 1.312c0 .726-.579 1.313-1.293 1.313zm-22.414 8.75h22.414c.714 0 1.293.587 1.293 1.312 0 .726-.579 1.313-1.293 1.313H1.293A1.303 1.303 0 0 1 0 12.687c0-.725.579-1.312 1.293-1.312z"/>
</svg>
