<svg xmlns="http://www.w3.org/2000/svg" width="17" height="17">
    <path fill="#FFF" fill-rule="evenodd" d="M15.53 15.349c-.865.912-2.128 1.433-3.458 1.433H5.887c-1.33 0-2.594-.521-3.458-1.433-.865-.847-1.463-2.019-1.463-3.387V5.578c0-1.303.598-2.541 1.463-3.388C3.293 1.343 4.557.757 5.887.757h6.185c1.33 0 2.593.586 3.458 1.433.865.847 1.463 2.085 1.463 3.388v6.384c0 1.368-.598 2.54-1.463 3.387zm.066-9.771c0-.912-.399-1.824-1.064-2.41-.598-.652-1.529-1.043-2.46-1.043H5.887c-.997 0-1.862.391-2.527 1.043-.599.586-.998 1.498-.998 2.41v6.384c0 .977.399 1.824.998 2.475.665.586 1.53.977 2.527.977h6.185c.931 0 1.862-.391 2.46-.977.665-.651 1.064-1.498 1.064-2.475V5.578zm-2.061-.26a.922.922 0 0 1-.931-.913c0-.504.417-.912.931-.912s.931.408.931.912a.922.922 0 0 1-.931.913zm-1.596 6.317c-.732.718-1.796 1.174-2.993 1.174a4.218 4.218 0 0 1-2.926-1.174c-.798-.781-1.264-1.758-1.264-2.93 0-1.108.466-2.15 1.264-2.867.732-.782 1.796-1.237 2.926-1.237 1.197 0 2.261.455 2.993 1.237a4.052 4.052 0 0 1 1.197 2.867c0 1.172-.466 2.149-1.197 2.93zm-.998-4.885c-.465-.455-1.197-.781-1.995-.781-.731 0-1.463.326-1.995.781-.466.522-.798 1.238-.798 1.955 0 .781.332 1.498.798 1.954.532.521 1.264.847 1.995.847.798 0 1.53-.326 1.995-.847.532-.456.865-1.173.865-1.954 0-.717-.333-1.433-.865-1.955z"/>
</svg>
