<svg xmlns="http://www.w3.org/2000/svg" width="18" height="18">
    <path fill="#FFF" fill-rule="evenodd" d="M17.999 7.707C17.999 3.45 13.97 0 9 0 4.029 0 0 3.45 0 7.707c0 3.973 3.51 7.244 8.019 7.662.125.023.564.156.537.601-.049.817-.619 1.71-.419 1.918.184.19.627.31 2.713-1.212 1.115-.813 2.897-1.977 4.441-3.458 1.068-.895 1.877-2.014 2.321-3.27a5.74 5.74 0 0 0 .387-2.241zM5.504 10.585c-.072.065-.177.097-.314.097H3.161c-.183 0-.314-.042-.395-.125-.08-.082-.12-.217-.12-.402V6.887c0-.174.038-.305.114-.391a.38.38 0 0 1 .302-.131c.126 0 .228.043.307.129.078.086.117.217.117.393v3.089H5.19c.135 0 .24.034.312.101a.33.33 0 0 1 .109.255.326.326 0 0 1-.107.253zm1.533-.354c0 .175-.039.306-.117.393a.395.395 0 0 1-.307.131.385.385 0 0 1-.299-.132c-.078-.088-.117-.218-.117-.392V6.887c0-.174.039-.305.116-.391a.38.38 0 0 1 .3-.131c.126 0 .228.043.307.129.078.086.117.217.117.393v3.344zm4.423-.036c0 .374-.151.559-.453.559a.524.524 0 0 1-.374-.139 1.057 1.057 0 0 1-.146-.169 7.69 7.69 0 0 1-.136-.199L8.775 7.775v2.487c0 .162-.037.285-.111.368a.359.359 0 0 1-.283.124.355.355 0 0 1-.285-.125c-.072-.085-.108-.207-.108-.367V6.988a.96.96 0 0 1 .045-.328.47.47 0 0 1 .179-.212.477.477 0 0 1 .269-.083c.075 0 .14.013.193.038a.46.46 0 0 1 .141.101c.041.043.082.097.125.165l.132.211 1.616 2.502V6.857c0-.164.034-.287.103-.37a.346.346 0 0 1 .278-.122c.121 0 .216.041.286.122.07.083.105.206.105.37v3.338zm4.016.393c-.067.063-.166.094-.298.094h-2.284c-.182 0-.314-.042-.395-.125-.079-.082-.12-.217-.12-.402V6.964c0-.123.019-.224.054-.302a.343.343 0 0 1 .169-.171.686.686 0 0 1 .293-.053h2.218c.134 0 .233.03.299.09a.313.313 0 0 1 .097.239.319.319 0 0 1-.097.242c-.066.061-.165.091-.299.091H13.22v1.043h1.743c.128 0 .224.029.287.088a.305.305 0 0 1 .095.233.317.317 0 0 1-.093.236c-.063.061-.159.091-.289.091H13.22v1.208h1.958c.132 0 .232.031.298.093a.33.33 0 0 1 .101.251c0 .1-.034.182-.101.245z"/>
</svg>
