<svg xmlns="http://www.w3.org/2000/svg" width="20" height="14">
    <path fill="#F7F4ED" fill-rule="evenodd" d="M16.594 8.708l-2.09 1.167a.818.818 0 0 1-1.099-.285.762.762 0 0 1 .294-1.062l2.09-1.167c1.537-.858 2.065-2.764 1.178-4.25-.887-1.485-2.859-1.996-4.396-1.139l-2.09 1.167a.82.82 0 0 1-1.099-.285.764.764 0 0 1 .295-1.062l2.09-1.167c2.305-1.286 5.263-.52 6.593 1.708 1.331 2.229.539 5.088-1.766 6.375zm-3.11-3.653a.764.764 0 0 1-.295 1.063L7.615 9.229a.82.82 0 0 1-1.099-.285.764.764 0 0 1 .295-1.062l5.573-3.111a.821.821 0 0 1 1.1.284zM4.211 6.639c-1.537.858-2.065 2.765-1.178 4.25.887 1.486 2.859 1.997 4.396 1.139l2.09-1.167a.819.819 0 0 1 1.099.285.764.764 0 0 1-.295 1.062l-2.09 1.167c-2.305 1.287-5.263.52-6.593-1.708-1.331-2.229-.539-5.089 1.766-6.375l2.091-1.167a.819.819 0 0 1 1.098.285.762.762 0 0 1-.294 1.062l-2.09 1.167z"/>
</svg>
