<svg xmlns="http://www.w3.org/2000/svg" width="22" height="22">
    <path fill="#FFF" fill-rule="evenodd" d="M8.099 15.74V6.256c0-.19.154-.343.343-.343.068 0 .132.019.185.053l8.403 4.642h.001c.167.092.227.301.135.467-.034.062-.085.109-.143.139l-8.41 4.827v.001c-.164.094-.374.037-.469-.128-.032-.055-.046-.115-.045-.174zM18.778 3.222C16.787 1.231 14.038 0 11 0 7.962 0 5.212 1.231 3.222 3.222 1.231 5.212 0 7.962 0 11c0 3.037 1.231 5.788 3.222 7.778C5.212 20.768 7.962 22 11 22c3.037 0 5.787-1.232 7.778-3.222C20.769 16.788 22 14.037 22 11c0-3.038-1.231-5.788-3.222-7.778z"/>
</svg>
