<svg xmlns="http://www.w3.org/2000/svg" width="32" height="24">
    <path fill="#B6B6B6" fill-rule="evenodd" d="M21.916 5.765a.611.611 0 0 1-.428-.172.568.568 0 0 1 0-.825l.942-.911a.62.62 0 0 1 .855 0 .57.57 0 0 1 0 .826l-.942.91a.612.612 0 0 1-.427.172zM4.85 22.495l.943-.91a.572.572 0 0 0 0-.826.618.618 0 0 0-.855 0l-.943.91a.572.572 0 0 0 0 .826.614.614 0 0 0 .428.171.612.612 0 0 0 .427-.171zm-2.309-9.319a.595.595 0 0 0-.604-.585H.605a.595.595 0 0 0-.605.585c0 .323.27.584.605.584h1.332a.594.594 0 0 0 .604-.584zM14.246 1.869V.582a.595.595 0 0 0-.605-.584.595.595 0 0 0-.605.584v1.287c0 .323.271.585.605.585a.595.595 0 0 0 .605-.585zM5.793 5.593a.57.57 0 0 0 0-.825l-.943-.911a.62.62 0 0 0-.855 0 .572.572 0 0 0 0 .826l.943.91a.611.611 0 0 0 .428.172.61.61 0 0 0 .427-.172zm26.205 13.292c0 2.82-2.376 5.116-5.295 5.116H13.677c-2.263 0-4.153-1.532-4.642-3.577-2.603-1.547-4.217-4.292-4.217-7.248 0-4.701 3.959-8.526 8.825-8.526 4.076 0 7.602 2.721 8.557 6.514a6.292 6.292 0 0 1 3.648 2.681 4.88 4.88 0 0 1 .855-.078c2.92 0 5.295 2.295 5.295 5.118zm-23.073.06c.01-.091.039-.174.053-.262.021-.134.045-.264.078-.395.041-.157.092-.311.149-.463.047-.123.093-.245.15-.363.07-.148.152-.285.238-.424.067-.109.133-.22.21-.324.098-.131.208-.252.319-.373.086-.093.168-.19.262-.278.124-.113.26-.214.396-.315.1-.075.194-.153.299-.22.151-.095.313-.172.476-.25.106-.052.206-.111.317-.156.186-.072.382-.121.579-.172.099-.027.193-.065.294-.085.303-.058.614-.09.934-.09.277 0 .559.027.851.085.928-2.348 3.283-3.942 5.918-3.942.148 0 .298.007.45.019-.993-3.012-3.916-5.121-7.254-5.121-4.199 0-7.616 3.301-7.616 7.358-.002 2.261 1.086 4.387 2.897 5.771zm21.864-.06c0-2.179-1.833-3.95-4.086-3.95-.306 0-.628.044-1.014.138a.616.616 0 0 1-.685-.298c-.704-1.317-1.954-2.227-3.402-2.55l-.027-.003a6.797 6.797 0 0 0-.565-.098 5.582 5.582 0 0 0-.564-.037c-2.294 0-4.325 1.493-4.939 3.631a.58.58 0 0 1-.294.357.638.638 0 0 1-.471.044 3.614 3.614 0 0 0-1.066-.176c-1.966 0-3.565 1.546-3.565 3.445 0 .202.029.396.063.587l-.001.006c.292 1.617 1.747 2.851 3.503 2.851h13.025c2.255 0 4.088-1.771 4.088-3.947z"/>
</svg>
