<svg xmlns="http://www.w3.org/2000/svg" width="17" height="13">
    <path fill="#F7F4ED" fill-rule="evenodd" d="M16.828 3.307s-.156-1.099-.637-1.583c-.608-.635-1.291-.638-1.604-.675C12.346.887 8.984.887 8.984.887h-.007s-3.362 0-5.603.162c-.313.037-.996.04-1.605.675-.48.484-.636 1.583-.636 1.583s-.161 1.29-.161 2.58v1.21c0 1.29.161 2.58.161 2.58s.156 1.099.636 1.583c.609.635 1.41.615 1.766.681 1.281.123 5.445.161 5.445.161s3.366-.005 5.607-.167c.313-.037.996-.04 1.604-.675.481-.484.637-1.583.637-1.583s.16-1.29.16-2.58v-1.21c0-1.29-.16-2.58-.16-2.58zM7.327 8.563l-.001-4.48 4.327 2.247-4.326 2.233z"/>
</svg>
